<svg xmlns="http://www.w3.org/2000/svg" viewBox="0 0 64 64">
  <defs><radialGradient id="face" cx="35%" cy="25%" r="80%"><stop stop-color="#fff394"/><stop offset=".52" stop-color="#ffdc4d"/><stop offset="1" stop-color="#f6a91e"/></radialGradient></defs>
  <circle cx="32" cy="32" r="29" fill="url(#face)" stroke="#ffd668" stroke-width="2"/>
  <ellipse cx="22" cy="12" rx="10" ry="4" fill="#fffbd9" opacity=".45" transform="rotate(-20 22 12)"/>
  <path d="M16 27c1-6 8-6 10 0M38 27c2-6 9-6 10 0" fill="none" stroke="#704219" stroke-width="3.5" stroke-linecap="round"/>
  <ellipse cx="14" cy="34" rx="5" ry="3" fill="#f7865b" opacity=".58"/><ellipse cx="50" cy="34" rx="5" ry="3" fill="#f7865b" opacity=".58"/>
  <path d="M16 35c3 3 29 3 32 0 0 24-32 24-32 0Z" fill="#71351b"/>
  <path d="M19 37c7 2 19 2 26 0-1 5-25 5-26 0Z" fill="#fffdf0"/>
  <path d="M23 49c5-5 13-5 18 0-5 5-13 5-18 0Z" fill="#ef797f"/>
</svg>
